# Blender v2.76 (sub 0) OBJ File: 'MachineGunTurret.blend'
# www.blender.org
mtllib MachineGunTurret_BaseStatic.mtl
o Plane.009_Plane.019
v -3.075796 -0.001100 3.381322
v 3.077488 -0.001098 3.381323
v -1.587423 -0.001099 3.381323
v 1.589115 -0.001098 3.381323
v -3.075796 -0.001100 -1.361985
v 3.077488 -0.001098 -1.361985
v -1.553064 -0.001099 -1.361985
v 1.554756 -0.001098 -1.361985
v -3.075796 -0.001100 -3.523538
v 3.077488 -0.001098 -3.523538
v -1.553064 -0.001099 -3.523538
v 1.554756 -0.001098 -3.523538
v -0.737885 -0.001099 3.381323
v 0.739576 -0.001099 3.381323
v -0.721903 -0.001099 -1.361985
v 0.723595 -0.001099 -1.361985
v -0.721903 -0.001099 -3.523538
v 0.723595 -0.001098 -3.523538
v -1.587423 -0.001201 3.381323
v 1.589115 -0.001201 3.381323
v -1.553064 -0.001201 -3.523538
v 1.554756 -0.001201 -3.523538
v -0.737885 -0.001201 3.381323
v 0.739576 -0.001201 3.381323
v -0.721903 -0.001201 -3.523538
v 0.723595 -0.001201 -3.523538
v 0.739576 -0.001201 3.609816
v 1.589115 -0.001201 3.609817
v -1.587423 -0.001201 3.609817
v -0.737885 -0.001201 3.609816
v 0.723595 -0.018925 -3.738974
v 1.554756 -0.018925 -3.738974
v -1.553064 -0.018925 -3.738974
v -0.721903 -0.018925 -3.738974
v -3.075796 -0.001201 3.381323
v 3.077488 -0.001201 3.381323
v -1.587423 -0.001201 3.381323
v 1.589115 -0.001201 3.381323
v -3.075796 -0.001201 -1.361985
v 3.077488 -0.001201 -1.361985
v -3.075796 -0.001201 -3.523538
v 3.077488 -0.001201 -3.523538
v -1.553064 -0.001201 -3.523538
v 1.554756 -0.001201 -3.523538
v 2.275524 -4.100214 4.902770
v 4.407133 -4.100214 4.902770
v -4.405441 -4.100214 4.902769
v -2.273832 -4.100214 4.902770
v -4.405441 -4.100214 -1.890473
v 4.407133 -4.100214 -1.890473
v 2.226315 -4.100214 -4.912285
v -2.224623 -4.100214 -4.912285
v 4.407133 -4.100214 -4.912285
v -4.405441 -4.100214 -4.912284
v -3.740619 -2.050707 -4.217911
v -3.740619 -2.050708 -1.626229
v -3.740619 -2.050708 3.725586
v 3.742310 -2.050707 -4.217912
v 1.890535 -2.050708 -4.217912
v 1.932319 -2.050708 3.725587
v 3.742310 -2.050708 3.725587
v 3.742310 -2.050708 -1.626229
v -1.888844 -2.050707 -4.217912
v -1.930627 -2.050708 3.725587
v -0.737885 -0.001201 3.381323
v 0.739576 -0.001201 3.381323
v -0.721903 -0.001201 -3.523538
v 0.723595 -0.001201 -3.523538
v -1.057144 -4.100214 4.902770
v 1.058836 -4.100214 4.902770
v -1.034257 -4.100214 -4.912285
v 1.035948 -4.100214 -4.912285
v -0.897514 -2.050708 3.725587
v 0.899206 -2.050708 3.725587
v 0.879772 -2.050708 -4.217912
v -0.878080 -2.050707 -4.217912
v 0.739576 -0.001201 3.609816
v 1.589115 -0.001201 3.609817
v 1.058836 -4.100214 5.376956
v 2.275524 -4.100214 5.376956
v 1.932319 -2.050708 4.115276
v -1.930627 -2.050708 4.115276
v -1.587423 -0.001201 3.609817
v -2.273832 -4.100214 5.376956
v 0.899206 -2.050708 4.115276
v -0.737885 -0.001201 3.609816
v -1.057144 -4.100214 5.376956
v -0.897514 -2.050708 4.115276
v 0.723595 -0.018925 -3.738974
v 1.554756 -0.018925 -3.738974
v 1.035948 -4.117939 -5.319756
v 2.226315 -4.117939 -5.319756
v 1.890535 -2.068432 -4.507483
v -1.888844 -2.068432 -4.507483
v -2.224623 -4.117939 -5.319756
v -1.553064 -0.018925 -3.738974
v -0.878080 -2.068432 -4.507483
v -0.721903 -0.018925 -3.738974
v -1.034257 -4.117939 -5.319756
v 0.879772 -2.068432 -4.507483
vt 0.222980 0.646916
vt 0.196718 0.646628
vt 0.196829 0.636529
vt 0.223091 0.636817
vt 0.222474 0.693076
vt 0.196212 0.692788
vt 0.196415 0.674288
vt 0.222676 0.674576
vt 0.197032 0.618029
vt 0.223294 0.618317
vt 0.280300 0.675626
vt 0.280102 0.693709
vt 0.280611 0.647354
vt 0.280724 0.637032
vt 0.280922 0.618949
vt 0.222787 0.664478
vt 0.280414 0.665304
vt 0.196525 0.664190
vt 0.281999 0.103253
vt 0.242772 0.102315
vt 0.243024 0.091765
vt 0.282252 0.092703
vt 0.211285 0.141188
vt 0.210962 0.182889
vt 0.200116 0.182804
vt 0.200440 0.141103
vt 0.312659 0.203124
vt 0.292656 0.169367
vt 0.301735 0.163987
vt 0.321739 0.197744
vt 0.193127 0.140598
vt 0.193840 0.182295
vt 0.182996 0.182480
vt 0.182283 0.140784
vt 0.847465 0.255403
vt 0.940096 0.218009
vt 0.996002 0.285001
vt 0.887997 0.328601
vt 0.656181 0.332622
vt 0.645195 0.426617
vt 0.893076 0.421480
vt 0.887754 0.341740
vt 0.978672 0.306602
vt 0.985307 0.400267
vt 0.760963 0.555468
vt 0.687166 0.563864
vt 0.686925 0.463934
vt 0.776441 0.452713
vt 0.847403 0.086832
vt 0.747768 0.087293
vt 0.757544 0.004412
vt 0.873715 0.003874
vt 0.542022 0.088245
vt 0.496382 0.005621
vt 0.882798 0.709506
vt 0.890262 0.629930
vt 0.981867 0.653615
vt 0.972731 0.747056
vt 0.475095 0.602189
vt 0.403147 0.620739
vt 0.352355 0.530548
vt 0.439674 0.509300
vt 0.995112 0.414831
vt 0.900189 0.431812
vt 0.516686 0.488300
vt 0.545459 0.581441
vt 0.529623 0.579946
vt 0.498408 0.483958
vt 0.514825 0.677310
vt 0.454663 0.696544
vt 0.792785 0.672653
vt 0.798549 0.607469
vt 0.737993 0.170173
vt 0.555640 0.171017
vt 0.821092 0.169789
vt 0.739683 0.644395
vt 0.676838 0.647686
vt 0.800834 0.441465
vt 0.796812 0.376169
vt 0.637398 0.250644
vt 0.806932 0.182205
vt 0.884189 0.151017
vt 0.897413 0.487602
vt 0.803980 0.493444
vt 0.807131 0.484675
vt 0.901473 0.475715
vt 0.803077 0.555559
vt 0.896413 0.563934
vt 0.614340 0.570305
vt 0.606756 0.471968
vt 0.622362 0.461196
vt 0.628527 0.563078
vt 0.626010 0.652083
vt 0.564396 0.663361
vt 0.486533 0.590938
vt 0.522540 0.671385
vt 0.991110 0.482560
vt 0.989876 0.571549
vt 0.451626 0.494539
vt 0.554600 0.663896
vt 0.667576 0.644905
vt 0.635191 0.649145
vt 0.672472 0.557483
vt 0.670339 0.454346
vt 0.996566 0.465880
vt 0.806223 0.449059
vt 0.804141 0.600018
vt 0.805995 0.564419
vt 0.900145 0.575928
vt 0.897653 0.619791
vt 0.994873 0.588362
vt 0.992056 0.639326
vn -0.000000 1.000000 0.000000
vn 0.000000 0.996600 -0.082000
vn -0.951200 0.308600 0.000000
vn 0.000000 0.320900 -0.947100
vn 0.000000 0.498100 0.867100
vn 0.951200 0.308600 0.000000
vn 0.986300 0.164700 -0.008400
vn 0.997000 -0.077700 0.000000
vn -0.000000 0.165700 0.986200
vn -0.996900 -0.077900 0.005500
vn -0.997000 -0.077700 0.000000
vn -0.986300 0.165200 0.000000
vn 0.000000 0.524200 0.851600
vn 0.000000 0.239500 0.970900
vn 0.986300 0.165200 0.000000
vn 0.000000 0.368400 -0.929600
vn 0.000000 0.351100 -0.936300
vn 0.986100 0.165700 -0.011600
vn 0.997000 -0.077400 0.003900
vn -0.986100 0.165700 -0.011600
vn -0.986300 0.164700 -0.008400
vn 0.996900 -0.077900 0.005500
vn -0.997000 -0.077400 0.003900
usemtl None
s off
f 15/1/1 17/2/1 11/3/1 7/4/1
f 6/5/1 10/6/1 12/7/1 8/8/1
f 7/4/1 11/3/1 9/9/1 5/10/1
f 4/11/1 2/12/1 6/5/1 8/8/1
f 13/13/1 15/1/1 7/4/1 3/14/1
f 1/15/1 3/14/1 7/4/1 5/10/1
f 4/11/1 8/8/1 16/16/1 14/17/1
f 14/17/1 16/16/1 15/1/1 13/13/1
f 8/8/1 12/7/1 18/18/1 16/16/1
f 16/16/1 18/18/1 17/2/1 15/1/1
f 23/19/1 19/20/1 29/21/1 30/22/1
f 21/23/2 25/24/2 34/25/2 33/26/2
f 20/27/1 24/28/1 27/29/1 28/30/1
f 26/31/2 22/32/2 32/33/2 31/34/2
f 56/35/3 55/36/3 54/37/3 49/38/3
f 57/39/3 56/35/3 49/38/3 47/40/3
f 59/41/4 58/42/4 53/43/4 51/44/4
f 61/45/5 60/46/5 45/47/5 46/48/5
f 58/49/6 62/50/6 50/51/6 53/52/6
f 62/50/6 61/53/6 46/54/6 50/51/6
f 55/55/4 63/56/4 52/57/4 54/58/4
f 64/59/5 57/60/5 47/61/5 48/62/5
f 59/41/7 51/44/7 92/63/7 93/64/7
f 69/65/8 73/66/8 88/67/8 87/68/8
f 37/69/9 35/70/9 57/60/9 64/59/9
f 41/71/4 43/72/4 63/56/4 55/55/4
f 40/73/6 36/74/6 61/53/6 62/50/6
f 42/75/6 40/73/6 62/50/6 58/49/6
f 36/76/9 38/77/9 60/46/9 61/45/9
f 44/78/4 42/79/4 58/42/4 59/41/4
f 35/80/3 39/81/3 56/35/3 57/39/3
f 39/81/3 41/82/3 55/36/3 56/35/3
f 75/83/10 68/84/10 89/85/10 100/86/10
f 67/87/4 68/84/4 75/83/4 76/88/4
f 74/89/11 70/90/11 79/91/11 85/92/11
f 66/93/9 65/94/9 73/66/9 74/89/9
f 37/69/12 64/59/12 82/95/12 83/96/12
f 74/89/5 73/66/5 69/65/5 70/90/5
f 76/88/4 75/83/4 72/97/4 71/98/4
f 88/67/13 82/95/13 84/99/13 87/68/13
f 86/100/14 83/96/14 82/95/14 88/67/14
f 78/101/14 77/102/14 85/92/14 81/103/14
f 81/103/13 85/92/13 79/91/13 80/104/13
f 66/93/11 74/89/11 85/92/11 77/102/11
f 73/66/8 65/94/8 86/100/8 88/67/8
f 60/46/15 38/77/15 78/101/15 81/103/15
f 45/47/15 60/46/15 81/103/15 80/104/15
f 64/59/12 48/62/12 84/99/12 82/95/12
f 100/86/16 93/64/16 92/63/16 91/105/16
f 89/85/17 90/106/17 93/64/17 100/86/17
f 96/107/17 98/108/17 97/109/17 94/110/17
f 94/110/16 97/109/16 99/111/16 95/112/16
f 44/78/18 59/41/18 93/64/18 90/106/18
f 76/88/19 71/98/19 99/111/19 97/109/19
f 63/56/20 43/72/20 96/107/20 94/110/20
f 52/57/21 63/56/21 94/110/21 95/112/21
f 67/87/22 76/88/22 97/109/22 98/108/22
f 72/97/23 75/83/23 100/86/23 91/105/23
