# Blender v2.76 (sub 0) OBJ File: 'MachineGunTurret.blend'
# www.blender.org
mtllib MachineGunTurret_Sight.mtl
o Plane.010_Plane.020
v -0.543727 0.020721 -1.051214
v -0.000211 0.020721 -1.051214
v -0.543727 -0.383436 -0.970822
v -0.000211 -0.383436 -0.970822
v -0.543727 -0.726064 -0.741885
v -0.000211 -0.726064 -0.741885
v -0.543727 -0.955001 -0.399257
v -0.000211 -0.955001 -0.399257
v -0.543727 -1.035393 0.004901
v -0.000211 -1.035393 0.004901
v -0.543727 -0.955001 0.409058
v -0.000211 -0.955001 0.409058
v -0.543727 -0.726064 0.751687
v -0.000211 -0.726064 0.751687
v -0.543727 -0.383436 0.980623
v -0.000211 -0.383436 0.980623
v -0.543727 0.020721 1.061015
v -0.000211 0.020721 1.061015
v -0.543727 0.424879 0.980624
v -0.000211 0.424879 0.980624
v -0.543727 0.767507 0.751687
v -0.000211 0.767507 0.751687
v -0.543727 0.996444 0.409058
v -0.000211 0.996444 0.409058
v -0.543727 1.076836 0.004901
v -0.000211 1.076836 0.004901
v -0.543727 0.996444 -0.399257
v -0.000211 0.996444 -0.399257
v -0.543727 0.767507 -0.741885
v -0.000211 0.767507 -0.741885
v -0.543727 0.424879 -0.970822
v -0.000211 0.424879 -0.970822
v -2.170944 0.261339 1.214236
v -2.168324 1.430916 1.410644
v -2.170944 0.261339 -1.283074
v -2.170944 1.430916 -1.283074
v -1.001367 0.261339 1.214236
v -0.998747 1.430916 1.410644
v -1.001367 0.261339 -1.283074
v -1.001367 1.430916 -1.283074
v -2.170944 0.168168 -1.283074
v -2.170944 0.168168 1.214236
v -1.001367 0.168168 -1.283074
v -1.001367 0.168168 1.214236
v -2.293184 0.271076 -1.403094
v -2.293184 0.271076 1.334256
v -0.879128 0.271076 -1.403094
v -0.879128 0.271076 1.334256
v -2.293184 0.158430 -1.403094
v -2.293184 0.158430 1.334256
v -0.879128 0.158431 -1.403094
v -0.879128 0.158431 1.334256
v -2.038080 0.394203 1.236210
v -2.035460 1.298051 1.388671
v -1.131612 1.298051 1.388671
v -1.134232 0.394203 1.236210
v -2.038080 0.394203 1.094425
v -2.038080 1.298051 1.128764
v -1.134232 1.298051 1.128764
v -1.134232 0.394203 1.094425
v -2.664999 0.020721 -0.455205
v -0.575109 0.020721 -0.455206
v -2.664999 -0.155354 -0.420182
v -0.575109 -0.155354 -0.420182
v -2.664999 -0.304623 -0.320443
v -0.575109 -0.304623 -0.320443
v -2.664999 -0.404362 -0.171174
v -0.575109 -0.404362 -0.171174
v -2.664999 -0.439385 0.004901
v -0.575109 -0.439385 0.004901
v -2.664999 -0.404362 0.180976
v -0.575109 -0.404362 0.180976
v -2.664999 -0.304623 0.330245
v -0.575109 -0.304623 0.330245
v -2.664999 -0.155354 0.429984
v -0.575109 -0.155354 0.429984
v -2.664999 0.020721 0.465008
v -0.575109 0.020721 0.465008
v -2.664999 0.196796 0.429984
v -0.575109 0.196796 0.429984
v -2.664999 0.346065 0.330246
v -0.575109 0.346065 0.330245
v -2.664999 0.445804 0.180976
v -0.575109 0.445804 0.180976
v -2.664999 0.480828 0.004901
v -0.575109 0.480828 0.004901
v -2.664999 0.445804 -0.171174
v -0.575109 0.445804 -0.171174
v -2.664999 0.346065 -0.320443
v -0.575109 0.346065 -0.320444
v -2.664999 0.196796 -0.420182
v -0.575109 0.196796 -0.420182
v -1.586911 1.284097 1.104350
v -1.586911 1.284097 1.205712
v -1.377965 1.228110 1.104350
v -1.377965 1.228110 1.205712
v -1.225006 1.075152 1.104350
v -1.225006 1.075152 1.205712
v -1.169020 0.866206 1.104350
v -1.169020 0.866206 1.205712
v -1.225006 0.657260 1.104350
v -1.225006 0.657260 1.205712
v -1.377965 0.504302 1.104350
v -1.377965 0.504302 1.205712
v -1.586911 0.448315 1.104350
v -1.586911 0.448315 1.205712
v -1.795856 0.504302 1.104350
v -1.795856 0.504302 1.205712
v -1.948815 0.657260 1.104350
v -1.948815 0.657260 1.205712
v -2.004802 0.866206 1.104350
v -2.004802 0.866206 1.205712
v -1.948815 1.075151 1.104350
v -1.948815 1.075151 1.205712
v -1.795856 1.228110 1.104350
v -1.795856 1.228110 1.205712
v -1.702124 1.148772 1.204822
v -1.799309 1.083835 1.204822
v -1.864246 0.986651 1.204822
v -1.887048 0.872014 1.204822
v -1.864246 0.757377 1.204822
v -1.799309 0.660192 1.204822
v -1.702124 0.595256 1.204822
v -1.587488 1.171574 1.204822
v -1.472851 1.148772 1.204822
v -1.375666 1.083835 1.204822
v -1.310730 0.986651 1.204822
v -1.287927 0.872014 1.204822
v -1.310730 0.757377 1.204822
v -1.375666 0.660193 1.204822
v -1.472851 0.595256 1.204822
v -1.587488 0.572453 1.204822
v -1.506427 1.148772 1.252809
v -1.437707 1.083835 1.293490
v -1.391790 0.986651 1.320672
v -1.375666 0.872014 1.330217
v -1.391790 0.757377 1.320672
v -1.437707 0.660192 1.293490
v -1.506427 0.595256 1.252809
v -1.587488 1.148772 1.272685
v -1.587488 1.083835 1.330217
v -1.587488 0.986651 1.368659
v -1.587488 0.872014 1.382158
v -1.587488 0.757377 1.368659
v -1.587488 0.660192 1.330217
v -1.587488 0.595256 1.272685
v -1.668548 1.148772 1.252809
v -1.737268 1.083835 1.293490
v -1.783185 0.986651 1.320672
v -1.799309 0.872014 1.330217
v -1.783185 0.757377 1.320672
v -1.737268 0.660192 1.293490
v -1.668548 0.595256 1.252809
vt 0.063486 0.045322
vt 0.063486 0.057447
vt 0.058846 0.068649
vt 0.050273 0.077222
vt 0.039071 0.081862
vt 0.026946 0.081862
vt 0.015745 0.077222
vt 0.007171 0.068649
vt 0.002532 0.057447
vt 0.002532 0.045322
vt 0.007171 0.034121
vt 0.015745 0.025547
vt 0.026946 0.020908
vt 0.039071 0.020908
vt 0.050273 0.025547
vt 0.058846 0.034121
vt 0.062268 0.137264
vt 0.177186 0.137051
vt 0.177278 0.186947
vt 0.070740 0.187145
vt 0.177044 0.087156
vt 0.226940 0.087014
vt 0.227081 0.136910
vt 0.062127 0.087369
vt 0.070413 0.037457
vt 0.176952 0.037260
vt 0.056507 0.131613
vt 0.056398 0.093053
vt 0.182151 0.066915
vt 0.182262 0.019650
vt 0.187140 0.014721
vt 0.187005 0.071866
vt 0.297277 0.067177
vt 0.196434 0.066934
vt 0.196547 0.019696
vt 0.297390 0.019939
vt 0.302132 0.072142
vt 0.191558 0.071877
vt 0.297261 0.081634
vt 0.196383 0.081392
vt 0.191547 0.076427
vt 0.302121 0.076692
vt 0.191692 0.014732
vt 0.302266 0.014996
vt 0.306818 0.015007
vt 0.306684 0.072152
vt 0.191703 0.010181
vt 0.302277 0.010446
vt 0.311673 0.019958
vt 0.311562 0.067224
vt 0.196563 0.005240
vt 0.297441 0.005481
vt 0.197898 0.201399
vt 0.195563 0.239002
vt 0.184744 0.238439
vt 0.187078 0.200837
vt 0.011532 0.087624
vt 0.017294 0.093276
vt 0.011674 0.137520
vt 0.017403 0.131835
vt 0.147114 0.236103
vt 0.149448 0.198500
vt 0.184483 0.249270
vt 0.146972 0.242011
vt 0.141215 0.235737
vt 0.143550 0.198134
vt 0.150039 0.192620
vt 0.188160 0.190057
vt 0.014307 0.345251
vt 0.010898 0.337021
vt 0.010898 0.328113
vt 0.014307 0.319883
vt 0.020606 0.313584
vt 0.028835 0.310175
vt 0.037743 0.310175
vt 0.045973 0.313584
vt 0.052272 0.319883
vt 0.055681 0.328113
vt 0.055681 0.337021
vt 0.052272 0.345251
vt 0.045973 0.351550
vt 0.037743 0.354959
vt 0.028835 0.354959
vt 0.020606 0.351550
vt 0.019254 0.142101
vt 0.030171 0.142101
vt 0.039626 0.147560
vt 0.045084 0.157014
vt 0.045084 0.167931
vt 0.039626 0.177385
vt 0.030171 0.182844
vt 0.019254 0.182844
vt 0.009800 0.177385
vt 0.004342 0.167931
vt 0.004342 0.157014
vt 0.009800 0.147560
vt 0.164010 0.002952
vt 0.164010 0.017082
vt 0.153297 0.017082
vt 0.153297 0.002952
vt 0.142584 0.017082
vt 0.142584 0.002952
vt 0.131871 0.017082
vt 0.131871 0.002952
vt 0.121158 0.017082
vt 0.121158 0.002952
vt 0.110446 0.017082
vt 0.110445 0.002952
vt 0.099733 0.017082
vt 0.099733 0.002952
vt 0.089020 0.017082
vt 0.089020 0.002952
vt 0.078307 0.017082
vt 0.078307 0.002952
vt 0.067594 0.017082
vt 0.067594 0.002952
vt 0.056881 0.017082
vt 0.056881 0.002952
vt 0.046168 0.017082
vt 0.046168 0.002952
vt 0.035455 0.017082
vt 0.035455 0.002952
vt 0.024743 0.017082
vt 0.024743 0.002952
vt 0.014030 0.017082
vt 0.014030 0.002952
vt 0.174723 0.002952
vt 0.174723 0.017082
vt 0.003317 0.017082
vt 0.003317 0.002952
vt 0.080016 0.462261
vt 0.079482 0.363886
vt 0.087932 0.363840
vt 0.088467 0.462215
vt 0.096383 0.363794
vt 0.096917 0.462169
vt 0.104833 0.363748
vt 0.105368 0.462123
vt 0.113284 0.363702
vt 0.113818 0.462077
vt 0.121735 0.363656
vt 0.122269 0.462031
vt 0.130185 0.363610
vt 0.130720 0.461985
vt 0.138635 0.363564
vt 0.139170 0.461939
vt 0.147086 0.363518
vt 0.147621 0.461893
vt 0.012412 0.462628
vt 0.011877 0.364253
vt 0.020328 0.364207
vt 0.020862 0.462582
vt 0.028778 0.364161
vt 0.029313 0.462536
vt 0.037229 0.364115
vt 0.037763 0.462491
vt 0.045679 0.364070
vt 0.046214 0.462445
vt 0.054130 0.364024
vt 0.054665 0.462399
vt 0.062580 0.363978
vt 0.063115 0.462353
vt 0.071566 0.462307
vt 0.071031 0.363932
vt 0.007231 0.212266
vt 0.011713 0.212278
vt 0.011686 0.221843
vt 0.007205 0.221830
vt 0.011660 0.231407
vt 0.007178 0.231395
vt 0.011633 0.240972
vt 0.007151 0.240959
vt 0.011606 0.250536
vt 0.007124 0.250524
vt 0.011579 0.260101
vt 0.007098 0.260088
vt 0.011553 0.269665
vt 0.007071 0.269653
vt 0.011526 0.279230
vt 0.007044 0.279217
vt 0.011499 0.288794
vt 0.007017 0.288781
vt 0.011472 0.298359
vt 0.006991 0.298346
vt 0.011446 0.307923
vt 0.006964 0.307910
vt 0.007258 0.202701
vt 0.011740 0.202714
vt 0.011419 0.317487
vt 0.006937 0.317475
vt 0.064950 0.196194
vt 0.069450 0.204758
vt 0.058682 0.205939
vt 0.056689 0.198172
vt 0.070940 0.214178
vt 0.069450 0.223598
vt 0.058682 0.222416
vt 0.059499 0.214178
vt 0.064950 0.232161
vt 0.058159 0.239023
vt 0.053595 0.237486
vt 0.056689 0.230183
vt 0.058159 0.189332
vt 0.053595 0.190870
vt 0.043453 0.223209
vt 0.043453 0.214178
vt 0.046885 0.238331
vt 0.044916 0.231583
vt 0.044916 0.196772
vt 0.046885 0.190024
vt 0.043453 0.205146
vt 0.040021 0.190024
vt 0.041990 0.196772
vt 0.030217 0.198172
vt 0.033311 0.190870
vt 0.027407 0.214178
vt 0.028224 0.205939
vt 0.041990 0.231583
vt 0.030217 0.230183
vt 0.028224 0.222416
vt 0.040021 0.238331
vt 0.033311 0.237486
vt 0.050500 0.183525
vt 0.050500 0.244831
vt 0.048891 0.243774
vt 0.048891 0.184581
vt 0.038015 0.243774
vt 0.038015 0.184581
vt 0.021956 0.232161
vt 0.017456 0.223598
vt 0.036406 0.244831
vt 0.028747 0.239023
vt 0.036406 0.183525
vt 0.028747 0.189332
vt 0.017456 0.204758
vt 0.021956 0.196194
vt 0.015966 0.214178
vn -1.000000 -0.000000 0.000000
vn -1.000000 0.001100 0.000500
vn 0.000000 0.000000 -1.000000
vn 1.000000 -0.001100 -0.000500
vn 0.000000 -0.163200 0.986600
vn 0.000000 0.996700 0.080900
vn 0.000000 1.000000 0.000000
vn 0.000000 -1.000000 0.000000
vn 0.079400 -0.996800 0.000000
vn 0.079400 0.996800 0.000000
vn -0.079400 -0.996800 0.000000
vn -0.000000 0.000000 1.000000
vn 1.000000 0.000000 0.000000
vn 0.000000 -0.996700 -0.080900
vn 0.000000 -0.996700 0.080900
vn 0.000000 0.996700 -0.080900
vn -0.079400 0.996800 0.000000
vn 0.000000 -0.165900 0.986100
vn 0.000000 -0.038000 0.999300
vn 1.000000 -0.000800 -0.006500
vn -1.000000 0.000800 0.006500
vn -0.665700 0.000000 -0.746200
vn 0.000000 -0.382700 -0.923900
vn -0.665700 -0.285500 -0.689400
vn 0.000000 -0.707100 -0.707100
vn -0.665700 -0.527600 -0.527600
vn 0.000000 -0.923900 -0.382700
vn -0.665700 -0.689400 -0.285500
vn -0.665700 -0.746200 0.000000
vn 0.000000 -0.923900 0.382700
vn -0.665700 -0.689400 0.285500
vn 0.000000 -0.707100 0.707100
vn -0.665700 -0.527600 0.527600
vn 0.000000 -0.382700 0.923900
vn -0.665700 -0.285500 0.689400
vn -0.665700 0.000000 0.746200
vn 0.000000 0.382700 0.923900
vn -0.665700 0.285500 0.689400
vn 0.000000 0.707100 0.707100
vn -0.665700 0.527600 0.527600
vn 0.000000 0.923900 0.382700
vn -0.665700 0.689400 0.285500
vn -0.665700 0.746200 0.000000
vn 0.000000 0.923900 -0.382700
vn -0.665700 0.689400 -0.285500
vn 0.000000 0.707100 -0.707100
vn -0.665700 0.527600 -0.527600
vn -0.665700 0.285500 -0.689400
vn 0.000000 0.382700 -0.923900
vn 0.000000 0.757100 0.653200
vn 0.378600 0.655700 0.653200
vn 0.500000 0.866000 0.000000
vn 0.655700 0.378600 0.653200
vn 0.866000 0.500000 0.000000
vn 0.757100 0.000000 0.653200
vn 0.655700 -0.378600 0.653200
vn 0.866000 -0.500000 0.000000
vn 0.378600 -0.655700 0.653200
vn 0.500000 -0.866000 0.000000
vn 0.000000 -0.757100 0.653200
vn -0.378600 -0.655700 0.653200
vn -0.500000 -0.866000 0.000000
vn -0.655700 -0.378600 0.653200
vn -0.866000 -0.500000 0.000000
vn -0.757100 0.000000 0.653200
vn -0.655700 0.378600 0.653200
vn -0.866000 0.500000 0.000000
vn -0.500000 0.866000 0.000000
vn -0.378600 0.655700 0.653200
vn 0.657300 -0.597000 0.459900
vn 0.781300 -0.301000 0.546700
vn 0.547000 -0.292800 0.784200
vn 0.449200 -0.586400 0.674000
vn 0.819300 0.000000 0.573300
vn 0.781300 0.301000 0.546700
vn 0.547000 0.292800 0.784200
vn 0.576900 0.000000 0.816800
vn 0.657300 0.597000 0.459900
vn 0.423000 0.856400 0.296000
vn 0.267800 0.851400 0.450800
vn 0.449200 0.586400 0.674000
vn 0.423000 -0.856400 0.296000
vn 0.267800 -0.851400 0.450800
vn 0.000000 0.239900 0.970800
vn 0.000000 0.815800 0.578400
vn 0.000000 0.512000 0.859000
vn 0.000000 -0.512000 0.859000
vn 0.000000 -0.815800 0.578400
vn 0.000000 -0.239900 0.970800
vn -0.449200 -0.586400 0.674000
vn -0.267800 -0.851400 0.450900
vn -0.576900 0.000000 0.816800
vn -0.547000 -0.292800 0.784200
vn -0.449200 0.586400 0.674000
vn -0.547000 0.292800 0.784200
vn -0.267800 0.851400 0.450900
vn 0.000000 -0.966200 0.257900
vn 0.000000 0.966200 0.257900
vn -0.657300 0.597000 0.459900
vn -0.781300 0.301000 0.546700
vn -0.423000 0.856400 0.296000
vn -0.423000 -0.856400 0.296000
vn -0.781300 -0.301000 0.546700
vn -0.657300 -0.597000 0.459900
vn -0.819300 0.000000 0.573300
usemtl None
s off
f 1/1/1 3/2/1 5/3/1 7/4/1 9/5/1 11/6/1 13/7/1 15/8/1 17/9/1 19/10/1 21/11/1 23/12/1 25/13/1 27/14/1 29/15/1 31/16/1
f 34/17/2 36/18/2 35/19/2 33/20/2
f 36/18/3 40/21/3 39/22/3 35/23/3
f 40/21/4 38/24/4 37/25/4 39/26/4
f 38/24/5 34/17/5 54/27/5 55/28/5
f 35/29/6 39/30/6 47/31/6 45/32/6
f 38/24/7 40/21/7 36/18/7 34/17/7
f 42/33/8 41/34/8 43/35/8 44/36/8
f 41/34/9 42/33/9 50/37/9 49/38/9
f 33/39/10 35/40/10 45/41/10 46/42/10
f 44/36/11 43/35/11 51/43/11 52/44/11
f 46/42/1 45/41/1 49/38/1 50/37/1
f 45/32/3 47/31/3 51/43/3 49/38/3
f 48/45/12 46/46/12 50/37/12 52/44/12
f 47/47/13 48/48/13 52/44/13 51/43/13
f 42/33/14 44/36/14 52/44/14 50/37/14
f 43/35/15 41/34/15 49/38/15 51/43/15
f 37/49/16 33/50/16 46/46/16 48/45/16
f 39/51/17 37/52/17 48/48/17 47/47/17
f 55/53/8 54/54/8 58/55/8 59/56/8
f 37/57/18 38/24/18 55/28/18 56/58/18
f 34/17/18 33/59/18 53/60/18 54/27/18
f 33/59/5 37/57/5 56/58/5 53/60/5
f 59/56/19 58/55/19 57/61/19 60/62/19
f 54/63/20 53/64/20 57/61/20 58/55/20
f 53/65/7 56/66/7 60/62/7 57/61/7
f 56/67/21 55/68/21 59/56/21 60/62/21
f 61/69/1 63/70/1 65/71/1 67/72/1 69/73/1 71/74/1 73/75/1 75/76/1 77/77/1 79/78/1 81/79/1 83/80/1 85/81/1 87/82/1 89/83/1 91/84/1
f 96/85/12 94/86/12 116/87/12 114/88/12 112/89/12 110/90/12 108/91/12 106/92/12 104/93/12 102/94/12 100/95/12 98/96/12
s 1
f 1/97/22 2/98/3 4/99/23 3/100/24
f 3/100/24 4/99/23 6/101/25 5/102/26
f 5/102/26 6/101/25 8/103/27 7/104/28
f 7/104/28 8/103/27 10/105/8 9/106/29
f 9/106/29 10/105/8 12/107/30 11/108/31
f 11/108/31 12/107/30 14/109/32 13/110/33
f 13/110/33 14/109/32 16/111/34 15/112/35
f 15/112/35 16/111/34 18/113/12 17/114/36
f 17/114/36 18/113/12 20/115/37 19/116/38
f 19/116/38 20/115/37 22/117/39 21/118/40
f 21/118/40 22/117/39 24/119/41 23/120/42
f 23/120/42 24/119/41 26/121/7 25/122/43
f 25/122/43 26/121/7 28/123/44 27/124/45
f 27/124/45 28/123/44 30/125/46 29/126/47
f 31/127/48 32/128/49 2/98/3 1/97/22
f 29/126/47 30/125/46 32/129/49 31/130/48
f 61/131/22 62/132/3 64/133/23 63/134/24
f 63/134/24 64/133/23 66/135/25 65/136/26
f 65/136/26 66/135/25 68/137/27 67/138/28
f 67/138/28 68/137/27 70/139/8 69/140/29
f 69/140/29 70/139/8 72/141/30 71/142/31
f 71/142/31 72/141/30 74/143/32 73/144/33
f 73/144/33 74/143/32 76/145/34 75/146/35
f 75/146/35 76/145/34 78/147/12 77/148/36
f 77/149/36 78/150/12 80/151/37 79/152/38
f 79/152/38 80/151/37 82/153/39 81/154/40
f 81/154/40 82/153/39 84/155/41 83/156/42
f 83/156/42 84/155/41 86/157/7 85/158/43
f 85/158/43 86/157/7 88/159/44 87/160/45
f 87/160/45 88/159/44 90/161/46 89/162/47
f 91/163/48 92/164/49 62/132/3 61/131/22
f 89/162/47 90/161/46 92/164/49 91/163/48
f 93/165/7 94/166/50 96/167/51 95/168/52
f 95/168/52 96/167/51 98/169/53 97/170/54
f 97/170/54 98/169/53 100/171/55 99/172/13
f 99/172/13 100/171/55 102/173/56 101/174/57
f 101/174/57 102/173/56 104/175/58 103/176/59
f 103/176/59 104/175/58 106/177/60 105/178/8
f 105/178/8 106/177/60 108/179/61 107/180/62
f 107/180/62 108/179/61 110/181/63 109/182/64
f 109/182/64 110/181/63 112/183/65 111/184/1
f 111/184/1 112/183/65 114/185/66 113/186/67
f 115/187/68 116/188/69 94/166/50 93/165/7
f 113/186/67 114/185/66 116/189/69 115/190/68
f 130/191/70 129/192/71 137/193/72 138/194/73
f 128/195/74 127/196/75 135/197/76 136/198/77
f 126/199/78 125/200/79 133/201/80 134/202/81
f 131/203/82 130/191/70 138/194/73 139/204/83
f 129/192/71 128/195/74 136/198/77 137/193/72
f 127/196/75 126/199/78 134/202/81 135/197/76
f 136/198/77 135/197/76 142/205/84 143/206/12
f 134/202/81 133/201/80 140/207/85 141/208/86
f 139/204/83 138/194/73 145/209/87 146/210/88
f 137/193/72 136/198/77 143/206/12 144/211/89
f 135/197/76 134/202/81 141/208/86 142/205/84
f 138/194/73 137/193/72 144/211/89 145/209/87
f 146/212/88 145/213/87 152/214/90 153/215/91
f 144/211/89 143/206/12 150/216/92 151/217/93
f 142/205/84 141/218/86 148/219/94 149/220/95
f 145/213/87 144/211/89 151/217/93 152/214/90
f 143/206/12 142/205/84 149/220/95 150/216/92
f 141/218/86 140/221/85 147/222/96 148/219/94
f 132/223/97 131/203/82 139/204/83
f 125/200/79 124/224/98 133/201/80
f 133/201/80 124/225/98 140/207/85
f 132/226/97 139/204/83 146/210/88
f 140/221/85 124/227/98 147/222/96
f 132/228/97 146/212/88 153/215/91
f 149/220/95 148/219/94 118/229/99 119/230/100
f 147/222/96 124/231/98 117/232/101
f 132/233/97 153/215/91 123/234/102
f 152/214/90 151/217/93 121/235/103 122/236/104
f 150/216/92 149/220/95 119/230/100 120/237/105
f 148/219/94 147/222/96 117/232/101 118/229/99
f 153/215/91 152/214/90 122/236/104 123/234/102
f 151/217/93 150/216/92 120/237/105 121/235/103
