# This file uses centimeters as units for non-parametric coordinates.

mtllib target.mtl
v 2.290308 0.773469 0.205471
v 2.415873 0.028263 0.220779
v 2.304962 -0.719263 0.236208
v 1.968432 -1.395934 0.250248
v 1.439225 -1.935514 0.261526
v 0.769144 -2.285185 0.268937
v 0.023780 -2.410718 0.271755
v -0.723905 -2.299826 0.269706
v -1.400721 -1.963363 0.262988
v -1.940419 -1.434265 0.252261
v -2.290168 -0.764323 0.238574
v -2.415733 -0.019117 0.223267
v -2.304822 0.728408 0.207838
v -1.968292 1.405079 0.193797
v -1.439086 1.944659 0.182519
v -0.769005 2.294330 0.175109
v -0.023641 2.419863 0.172290
v 0.724043 2.308971 0.174340
v 1.400860 1.972508 0.181057
v 1.940558 1.443410 0.191784
v 2.158725 0.720195 -0.237625
v 2.277083 0.017759 -0.223196
v 2.172538 -0.686864 -0.208653
v 1.855322 -1.324699 -0.195418
v 1.356488 -1.833311 -0.184788
v 0.724865 -2.162913 -0.177802
v 0.022280 -2.281242 -0.175146
v -0.682492 -2.176714 -0.177078
v -1.320465 -1.859562 -0.183409
v -1.829187 -1.360830 -0.193521
v -2.158864 -0.729339 -0.206423
v -2.277221 -0.026902 -0.220851
v -2.172676 0.677720 -0.235395
v -1.855461 1.315555 -0.248630
v -1.356627 1.824167 -0.259260
v -0.725004 2.153769 -0.266245
v -0.022419 2.272097 -0.268902
v 0.682353 2.167570 -0.266970
v 1.320325 1.850418 -0.260638
v 1.829048 1.351686 -0.250527
v 0.000069 0.004573 0.222024
v -0.000070 -0.004572 -0.222024
v -0.769100 2.288023 -0.131149
v -1.439182 1.938352 -0.123739
v -1.968388 1.398772 -0.112461
v -2.304918 0.722101 -0.098420
v -2.415829 -0.025424 -0.082991
v -2.290264 -0.770631 -0.067684
v -1.940515 -1.440572 -0.053997
v -1.400817 -1.969670 -0.043270
v -0.724000 -2.306133 -0.036552
v 0.023684 -2.417025 -0.034503
v 0.769048 -2.291492 -0.037321
v 1.439129 -1.941822 -0.044732
v 1.968336 -1.402241 -0.056010
v 2.304866 -0.725570 -0.070050
v 2.415777 0.021956 -0.085479
v 2.290212 0.767162 -0.100787
v 1.940462 1.437103 -0.114474
v 1.400764 1.966201 -0.125201
v 0.723947 2.302664 -0.131918
v -0.023737 2.413556 -0.133968
vt 0.982800 0.130155
vt 0.958988 0.083215
vt 0.921926 0.045890
vt 0.875241 0.021801
vt 0.823502 0.013269
vt 0.771773 0.021091
vt 0.725115 0.044459
vt 0.688095 0.081041
vt 0.664335 0.127206
vt 0.656160 0.178384
vt 0.664368 0.229505
vt 0.688125 0.276762
vt 0.725272 0.316658
vt 0.772060 0.342717
vt 0.823784 0.350708
vt 0.875498 0.342300
vt 0.922138 0.318299
vt 0.959139 0.281031
vt 0.982878 0.234124
vt 0.991031 0.182145
vt 0.031679 0.717849
vt 0.008684 0.593537
vt 0.025065 0.467931
vt 0.079654 0.353400
vt 0.167385 0.261514
vt 0.279628 0.201703
vt 0.405086 0.180109
vt 0.531080 0.198847
vt 0.645004 0.255839
vt 0.735641 0.345118
vt 0.793628 0.455787
vt 0.815454 0.578499
vt 0.797862 0.705837
vt 0.741431 0.820983
vt 0.653607 0.910913
vt 0.542431 0.969086
vt 0.418800 0.989988
vt 0.294698 0.971770
vt 0.182003 0.916316
vt 0.091435 0.828935
vt 0.113853 0.690284
vt 0.095486 0.592654
vt 0.412060 0.585915
vt 0.108029 0.494053
vt 0.150482 0.404166
vt 0.218856 0.331979
vt 0.306448 0.284790
vt 0.404534 0.267389
vt 0.503302 0.281507
vt 0.592918 0.325655
vt 0.664551 0.395344
vt 0.711246 0.483601
vt 0.728539 0.581714
vt 0.714851 0.680075
vt 0.671604 0.769088
vt 0.603102 0.840106
vt 0.516088 0.886270
vt 0.419071 0.903188
vt 0.321455 0.889306
vt 0.232632 0.846034
vt 0.161130 0.777517
vt 0.620753 0.863619
vt 0.823742 0.170855
vt 0.525683 0.914047
vt 0.695621 0.786047
vt 0.742908 0.688823
vt 0.757924 0.581392
vt 0.739098 0.474217
vt 0.688140 0.377780
vt 0.609892 0.301607
vt 0.511937 0.253329
vt 0.403920 0.237894
vt 0.296619 0.256960
vt 0.200810 0.308637
vt 0.126078 0.387659
vt 0.079744 0.485984
vt 0.066156 0.593745
vt 0.086327 0.700348
vt 0.138035 0.795523
vt 0.216143 0.870232
vt 0.313124 0.917413
vt 0.419715 0.932530
vn 0.000313 0.020589 0.999788
vn 0.000313 0.020590 0.999788
vn 0.000313 0.020589 0.999788
vn 0.000313 0.020589 0.999788
vn 0.000314 0.020589 0.999788
vn 0.000313 0.020589 0.999788
vn 0.000313 0.020589 0.999788
vn 0.000313 0.020589 0.999788
vn 0.000313 0.020589 0.999788
vn 0.000313 0.020589 0.999788
vn 0.000312 0.020589 0.999788
vn 0.000312 0.020589 0.999788
vn 0.000312 0.020589 0.999788
vn 0.000312 0.020589 0.999788
vn 0.000313 0.020590 0.999788
vn 0.000313 0.020590 0.999788
vn 0.000313 0.020590 0.999788
vn 0.000313 0.020590 0.999788
vn 0.000313 0.020590 0.999788
vn 0.000313 0.020590 0.999788
vn 0.000313 0.020590 0.999788
vn 0.121079 0.020334 -0.992435
vn 0.127735 -0.019164 -0.991623
vn -0.000313 -0.020589 -0.999788
vn 0.121856 -0.058785 -0.990806
vn 0.104019 -0.094651 -0.990061
vn 0.075969 -0.123250 -0.989464
vn 0.040453 -0.141784 -0.989071
vn 0.000946 -0.148438 -0.988921
vn -0.038683 -0.142560 -0.989030
vn -0.074557 -0.124727 -0.989386
vn -0.103162 -0.096683 -0.989955
vn -0.121700 -0.061174 -0.990680
vn -0.128355 -0.021676 -0.991491
vn -0.122477 0.017946 -0.992309
vn -0.104640 0.053811 -0.993053
vn -0.076590 0.082411 -0.993651
vn -0.041074 0.100944 -0.994044
vn -0.001567 0.107598 -0.994193
vn 0.038063 0.101720 -0.994085
vn 0.073936 0.083887 -0.993729
vn 0.102541 0.055843 -0.993160
vn -0.572127 0.765406 -0.294660
vn -0.305781 0.904394 -0.297605
vn -0.782477 0.550932 -0.290177
vn -0.916242 0.281968 -0.284596
vn -0.960327 -0.015161 -0.278463
vn -0.910417 -0.311368 -0.272379
vn -0.771398 -0.577658 -0.266938
vn -0.556878 -0.787966 -0.262674
vn -0.287855 -0.921703 -0.260005
vn 0.009337 -0.965781 -0.259190
vn 0.305606 -0.915884 -0.260310
vn 0.571952 -0.776896 -0.263256
vn 0.782303 -0.562422 -0.267739
vn 0.916067 -0.293457 -0.273320
vn 0.960153 0.003672 -0.279452
vn 0.910243 0.299879 -0.285537
vn 0.771223 0.566169 -0.290977
vn 0.556703 0.776476 -0.295241
vn 0.287680 0.910214 -0.297911
vn -0.009512 0.954292 -0.298726
vn -0.595697 0.803043 -0.016351
vn -0.318336 0.947779 -0.019418
vn -0.814747 0.579699 -0.011683
vn -0.954043 0.299611 -0.005872
vn -0.999952 -0.009806 0.000515
vn -0.947978 -0.318262 0.006851
vn -0.803209 -0.595565 0.012517
vn -0.579817 -0.814570 0.016957
vn -0.299668 -0.953839 0.019736
vn 0.009814 -0.999740 0.020585
vn 0.318336 -0.947779 0.019419
vn 0.595697 -0.803043 0.016351
vn 0.814747 -0.579699 0.011683
vn 0.954043 -0.299611 0.005872
vn 0.999952 0.009806 -0.000515
vn 0.947978 0.318263 -0.006851
vn 0.803209 0.595566 -0.012516
vn 0.579817 0.814570 -0.016956
vn 0.299668 0.953839 -0.019737
vn -0.009814 0.999740 -0.020585
usemtl initialShadingGroup
f 2/2/1 1/1/2 41/63/3
f 3/3/4 2/2/1 41/63/3
f 4/4/5 3/3/4 41/63/3
f 5/5/6 4/4/5 41/63/3
f 6/6/7 5/5/6 41/63/3
f 7/7/8 6/6/7 41/63/3
f 8/8/9 7/7/8 41/63/3
f 9/9/10 8/8/9 41/63/3
f 10/10/11 9/9/10 41/63/3
f 11/11/12 10/10/11 41/63/3
f 12/12/13 11/11/12 41/63/3
f 13/13/14 12/12/13 41/63/3
f 14/14/15 13/13/14 41/63/3
f 15/15/16 14/14/15 41/63/3
f 16/16/17 15/15/16 41/63/3
f 17/17/18 16/16/17 41/63/3
f 18/18/19 17/17/18 41/63/3
f 19/19/20 18/18/19 41/63/3
f 20/20/21 19/19/20 41/63/3
f 1/1/2 20/20/21 41/63/3
f 21/41/22 22/42/23 42/43/24
f 22/42/23 23/44/25 42/43/24
f 23/44/25 24/45/26 42/43/24
f 24/45/26 25/46/27 42/43/24
f 25/46/27 26/47/28 42/43/24
f 26/47/28 27/48/29 42/43/24
f 27/48/29 28/49/30 42/43/24
f 28/49/30 29/50/31 42/43/24
f 29/50/31 30/51/32 42/43/24
f 30/51/32 31/52/33 42/43/24
f 31/52/33 32/53/34 42/43/24
f 32/53/34 33/54/35 42/43/24
f 33/54/35 34/55/36 42/43/24
f 34/55/36 35/56/37 42/43/24
f 35/56/37 36/57/38 42/43/24
f 36/57/38 37/58/39 42/43/24
f 37/58/39 38/59/40 42/43/24
f 38/59/40 39/60/41 42/43/24
f 39/60/41 40/61/42 42/43/24
f 40/61/42 21/41/22 42/43/24
f 44/62/43 43/64/44 36/57/38 35/56/37
f 45/65/45 44/62/43 35/56/37 34/55/36
f 46/66/46 45/65/45 34/55/36 33/54/35
f 47/67/47 46/66/46 33/54/35 32/53/34
f 48/68/48 47/67/47 32/53/34 31/52/33
f 49/69/49 48/68/48 31/52/33 30/51/32
f 50/70/50 49/69/49 30/51/32 29/50/31
f 51/71/51 50/70/50 29/50/31 28/49/30
f 52/72/52 51/71/51 28/49/30 27/48/29
f 53/73/53 52/72/52 27/48/29 26/47/28
f 54/74/54 53/73/53 26/47/28 25/46/27
f 55/75/55 54/74/54 25/46/27 24/45/26
f 56/76/56 55/75/55 24/45/26 23/44/25
f 57/77/57 56/76/56 23/44/25 22/42/23
f 58/78/58 57/77/57 22/42/23 21/41/22
f 59/79/59 58/78/58 21/41/22 40/61/42
f 60/80/60 59/79/59 40/61/42 39/60/41
f 61/81/61 60/80/60 39/60/41 38/59/40
f 62/82/62 61/81/61 38/59/40 37/58/39
f 43/64/44 62/82/62 37/58/39 36/57/38
f 15/35/63 16/36/64 43/64/44 44/62/43
f 14/34/65 15/35/63 44/62/43 45/65/45
f 13/33/66 14/34/65 45/65/45 46/66/46
f 12/32/67 13/33/66 46/66/46 47/67/47
f 11/31/68 12/32/67 47/67/47 48/68/48
f 10/30/69 11/31/68 48/68/48 49/69/49
f 9/29/70 10/30/69 49/69/49 50/70/50
f 8/28/71 9/29/70 50/70/50 51/71/51
f 7/27/72 8/28/71 51/71/51 52/72/52
f 6/26/73 7/27/72 52/72/52 53/73/53
f 5/25/74 6/26/73 53/73/53 54/74/54
f 4/24/75 5/25/74 54/74/54 55/75/55
f 3/23/76 4/24/75 55/75/55 56/76/56
f 2/22/77 3/23/76 56/76/56 57/77/57
f 1/21/78 2/22/77 57/77/57 58/78/58
f 20/40/79 1/21/78 58/78/58 59/79/59
f 19/39/80 20/40/79 59/79/59 60/80/60
f 18/38/81 19/39/80 60/80/60 61/81/61
f 17/37/82 18/38/81 61/81/61 62/82/62
f 16/36/64 17/37/82 62/82/62 43/64/44
