# 3ds Max Wavefront OBJ Exporter v0.97b - (c)2007 guruware
# File Created: 02.04.2018 13:59:41

mtllib target.mtl

#
# object target
#

v  -22.7091 43.7966 1.9465
v  -33.0748 48.1263 1.9465
v  -33.4841 45.9431 1.9465
v  -43.4389 3.4091 1.9465
v  -46.1538 24.2236 1.9465
v  -43.8913 -0.2108 1.9465
v  46.1539 0.2417 1.9465
v  39.3665 38.2508 1.9465
v  46.1539 22.8661 1.9465
v  -0.9602 95.8646 1.9465
v  33.9367 52.7304 1.9465
v  31.6742 66.3050 1.9465
v  27.5529 73.7233 1.9465
v  -33.0748 48.1263 -1.9464
v  -33.4841 45.9431 -1.9464
v  -46.1538 24.2236 -1.9464
v  -43.4389 3.4091 -1.9464
v  -43.8913 -0.2108 -1.9464
v  46.1539 0.2417 -1.9464
v  46.1539 22.8661 -1.9464
v  39.3665 38.2508 -1.9464
v  33.9367 52.7304 -1.9464
v  31.6742 66.3050 -1.9464
v  27.5529 73.7234 -1.9464
v  -22.7091 43.7966 -1.9464
v  -0.9602 95.8646 -1.9464
v  -0.9602 95.8646 -1.9509
v  -22.7090 43.7966 -1.9509
v  27.5529 73.7234 -1.9509
v  24.8869 78.5222 1.9465
v  23.5294 84.8571 1.9465
v  15.8371 97.0742 1.9465
v  5.6274 111.6356 1.9465
v  18.0996 103.4091 1.9465
v  18.1418 103.5539 1.9465
v  27.5529 73.7234 1.9465
v  24.8869 78.5222 -1.9464
v  23.5294 84.8571 -1.9464
v  15.8371 97.0742 -1.9463
v  18.0996 103.4091 -1.9463
v  5.6274 111.6356 -1.9463
v  18.1418 103.5539 -1.9463
v  18.1418 103.5539 -1.9141
v  5.6274 111.6356 -1.9141
v  -0.9602 95.8646 -1.9141
v  27.5529 73.7234 -1.9141
v  -26.0044 132.0630 1.9465
v  -27.1493 129.2009 1.9465
v  -28.5068 105.6715 1.9465
v  -22.7091 43.7965 1.9464
v  -33.0316 85.3095 1.9464
v  -27.1493 80.3322 1.9464
v  -28.9592 66.3050 1.9464
v  -26.2443 56.8028 1.9464
v  -32.1267 53.1828 1.9464
v  -33.0748 48.1263 1.9464
v  5.6274 111.6355 1.9465
v  -27.1493 129.2009 -1.9464
v  -28.5068 105.6715 -1.9464
v  -33.0316 85.3095 -1.9464
v  -27.1493 80.3322 -1.9464
v  -28.9592 66.3050 -1.9464
v  -26.2443 56.8027 -1.9464
v  -32.1267 53.1828 -1.9464
v  -26.0044 132.0630 -1.9464
v  5.6274 111.6355 -1.9464
v  -22.7091 43.7965 -1.9464
v  -33.0748 48.1263 -1.9434
v  -22.7091 43.7965 -1.9434
v  5.6274 111.6355 -1.9433
v  -26.0044 132.0630 -1.9433
v  -8.1448 151.3728 1.9465
v  -19.9095 147.3004 1.9465
v  -7.3985 120.0475 1.9465
v  -3.0175 150.3474 1.9465
v  -8.1448 151.3728 -1.9464
v  -3.0175 150.3474 -1.9464
v  -19.9095 147.3004 -1.9464
v  -7.3985 120.0475 -1.9464
v  -7.3985 120.0475 -1.9191
v  -3.0175 150.3474 -1.9191
v  4.9838 135.0854 1.9465
v  -5.7480 131.4621 1.9465
v  -7.3984 120.0475 1.9465
v  21.2670 114.2689 1.9465
v  26.6969 107.4815 1.9465
v  33.9367 109.7440 1.9465
v  35.2941 119.6987 1.9465
v  36.2046 122.7942 1.9465
v  21.2670 114.2689 -1.9463
v  26.6969 107.4815 -1.9463
v  33.9367 109.7440 -1.9463
v  35.2941 119.6987 -1.9463
v  36.2046 122.7942 -1.9463
v  -7.3984 120.0475 -1.9463
v  -5.7480 131.4621 -1.9463
v  4.9838 135.0854 -1.9463
v  4.9838 135.0853 -1.9397
v  -5.7480 131.4621 -1.9397
v  36.2046 122.7942 -1.9397
v  42.0815 147.3005 1.9465
v  42.0815 147.3005 -1.9463
v  42.0697 147.6061 -1.9463
v  42.0697 147.6061 1.9465
v  41.6290 159.0652 1.9465
v  33.0317 167.6624 1.9465
v  21.2670 171.2824 1.9465
v  8.5973 169.0199 1.9465
v  4.5249 159.9701 1.9465
v  0.9050 149.5629 1.9465
v  41.6290 159.0652 -1.9463
v  33.0317 167.6624 -1.9463
v  21.2670 171.2824 -1.9463
v  8.5973 169.0199 -1.9463
v  4.5249 159.9701 -1.9463
v  0.9050 149.5629 -1.9463
v  -3.0175 150.3474 -1.9463
v  -5.7480 131.4621 -1.9347
v  42.0697 147.6061 -1.9347
v  38.9140 137.7982 1.9465
v  37.5566 127.3910 1.9465
v  37.5566 127.3910 -1.9463
v  38.9140 137.7982 -1.9463
v  42.0697 147.6061 -1.9486
v  4.9838 135.0853 -1.9486
v  36.2046 122.7942 -1.9486
# 126 vertices

vn -0.6525 0.2725 -0.7071
vn -0.7430 0.1393 0.6547
vn -0.6951 0.2590 -0.6707
vn -0.6761 -0.0018 0.7368
vn -0.7523 0.1519 0.6411
vn -0.6141 -0.5450 0.5709
vn 0.5787 -0.5758 0.5776
vn 0.6488 0.2645 0.7135
vn 0.7321 0.1543 0.6635
vn -0.2101 0.7981 0.5647
vn 0.7028 0.1884 -0.6860
vn 0.7002 0.2446 0.6707
vn 0.5672 0.4863 0.6647
vn -0.7430 0.1393 -0.6547
vn -0.6224 0.2319 -0.7476
vn -0.7523 0.1519 -0.6411
vn -0.6761 -0.0018 -0.7368
vn -0.6142 -0.5449 -0.5708
vn 0.5787 -0.5758 -0.5776
vn 0.7321 0.1543 -0.6635
vn 0.6606 0.2693 0.7008
vn 0.6606 0.1771 -0.7295
vn 0.7002 0.2446 -0.6707
vn 0.4350 0.2417 -0.8674
vn 0.0000 0.0000 -1.0000
vn 0.3854 0.9227 -0.0000
vn 0.3854 0.9227 0.0000
vn -0.2546 0.9670 -0.0000
vn -0.9227 0.3854 0.0000
vn 0.6133 0.7898 0.0000
vn 0.6278 0.2357 0.7419
vn 0.6877 0.2799 0.6699
vn 0.5691 0.0625 0.8199
vn -0.2438 0.7857 0.5686
vn 0.6789 -0.2200 0.7005
vn 0.3500 0.5419 0.7641
vn 0.5480 -0.6391 0.5396
vn -0.7790 -0.2051 0.5926
vn 0.6277 0.2357 -0.7419
vn 0.8467 0.4704 -0.2488
vn 0.6878 0.2799 -0.6698
vn 0.5691 0.0625 -0.8199
vn 0.6789 -0.2200 -0.7005
vn 0.9600 -0.2800 -0.0000
vn 0.5425 0.8401 -0.0000
vn -0.2963 0.9551 0.0000
vn -0.9670 -0.2546 -0.0000
vn -0.6133 -0.7898 -0.0000
vn 0.4078 0.6315 0.6594
vn -0.7223 0.1608 0.6727
vn -0.6815 0.0948 0.7257
vn 0.3102 -0.7553 0.5773
vn -0.7530 -0.2537 0.6071
vn -0.7361 -0.2856 -0.6137
vn -0.7453 -0.0560 0.6644
vn -0.7506 0.2913 -0.5931
vn -0.6424 0.4416 0.6264
vn -0.7111 -0.3837 0.5892
vn 0.7730 0.2399 0.5873
vn -0.7223 0.1608 -0.6727
vn -0.7174 0.0997 0.6894
vn -0.7530 -0.2537 -0.6071
vn -0.7361 -0.2856 0.6137
vn -0.7453 -0.0560 -0.6644
vn -0.4579 0.1778 -0.8710
vn -0.6425 0.4416 -0.6263
vn -0.6500 0.1219 -0.7501
vn -0.9285 0.3714 -0.0000
vn -0.3854 -0.9227 -0.0000
vn 0.3800 -0.9250 -0.0000
vn 0.9551 0.2963 0.0000
vn -0.0514 0.7560 0.6526
vn -0.5391 0.5652 0.6244
vn -0.7705 -0.2455 0.5883
vn 0.3437 -0.7552 0.5581
vn 0.6653 0.4698 0.5802
vn -0.0514 0.7560 -0.6526
vn 0.1363 0.6816 -0.7189
vn -0.5391 0.5652 -0.6244
vn -0.7706 -0.2455 -0.5882
vn -0.4389 -0.6797 -0.5877
vn 0.9897 -0.1431 0.0000
vn 0.0191 0.7703 0.6374
vn -0.1952 0.5780 0.7923
vn 0.0000 -0.0000 1.0000
vn 0.0509 -0.2575 0.9649
vn 0.2884 -0.7740 0.5637
vn -0.2339 -0.7655 0.5995
vn 0.6087 -0.5145 0.6040
vn 0.7073 -0.1513 -0.6906
vn 0.7304 0.3572 0.5822
vn 0.2886 -0.7740 -0.5636
vn 0.1618 -0.8181 0.5518
vn -0.2339 -0.7655 -0.5995
vn 0.6087 -0.5145 -0.6040
vn 0.7073 -0.1513 0.6906
vn 0.6594 -0.1940 -0.7263
vn -0.5425 -0.8401 -0.0000
vn -0.9897 0.1431 0.0000
vn 0.0247 0.9997 -0.0000
vn -0.3199 0.9475 -0.0000
vn 0.3663 0.9305 -0.0000
vn 0.9993 0.0384 0.0000
vn 0.8601 0.0331 -0.5090
vn 0.8448 -0.3172 0.4310
vn 0.7090 0.3098 0.6335
vn 0.3890 0.6462 0.6566
vn 0.0458 0.7518 0.6578
vn 0.2619 -0.7757 0.5742
vn -0.4846 0.6214 0.6156
vn -0.6659 0.2650 0.6974
vn -0.4025 0.7042 -0.5849
vn 0.7090 0.3098 -0.6335
vn 0.3890 0.6461 -0.6567
vn 0.0458 0.7518 -0.6578
vn -0.4846 0.6214 -0.6156
vn -0.6660 0.2651 -0.6973
vn -0.4025 0.7042 0.5849
vn 0.1961 0.9806 0.0000
vn 0.3199 -0.9475 0.0000
vn 0.6668 -0.1531 0.7294
vn 0.4666 -0.1555 0.8707
vn -0.2477 0.7336 0.6328
vn -0.8383 0.0207 0.5449
vn 0.7083 -0.1494 0.6899
vn 0.3601 -0.7363 0.5728
vn 0.7083 -0.1494 -0.6899
vn 0.6979 -0.2053 -0.6862
vn 0.6668 -0.1531 -0.7293
vn 0.4664 -0.1555 -0.8708
vn -0.9997 0.0247 -0.0000
vn -0.3663 -0.9305 0.0000
# 132 vertex normals

vt 0.2395 0.2502 1.5052
vt 0.1342 0.2754 1.5052
vt 0.1300 0.2627 1.5052
vt 0.0289 0.0154 1.5052
vt 0.0013 0.1364 1.5052
vt 0.0243 -0.0057 1.5052
vt 0.9392 -0.0030 1.5052
vt 0.8703 0.2180 1.5052
vt 0.9392 0.1285 1.5052
vt 0.4605 0.5531 1.5052
vt 0.8151 0.3022 1.5052
vt 0.7921 0.3811 1.5052
vt 0.7502 0.4243 1.5052
vt 0.1342 0.2754 0.5052
vt 0.1300 0.2627 0.5052
vt 0.0013 0.1364 0.5052
vt 0.0289 0.0154 0.5052
vt 0.0243 -0.0057 0.5052
vt 0.9392 -0.0030 0.5052
vt 0.9392 0.1285 0.5052
vt 0.8703 0.2180 0.5052
vt 0.8151 0.3022 0.5052
vt 0.7921 0.3811 0.5052
vt 0.7502 0.4243 0.5052
vt 0.2395 0.2502 0.5052
vt 0.4605 0.5531 0.5052
vt 0.8605 0.3810 0.0000
vt 0.8605 0.4599 0.0000
vt 1.0000 0.4599 0.0000
vt 1.0000 0.3810 0.0000
vt 0.7231 0.4522 1.5052
vt 0.7093 0.4890 1.5052
vt 0.6312 0.5601 1.5052
vt 0.5274 0.6448 1.5052
vt 0.6542 0.5969 1.5052
vt 0.6546 0.5978 1.5052
vt 0.7231 0.4522 0.5052
vt 0.7093 0.4890 0.5052
vt 0.6312 0.5601 0.5052
vt 0.6542 0.5969 0.5052
vt 0.5274 0.6448 0.5052
vt 0.6546 0.5978 0.5052
vt 0.2060 0.7636 1.5052
vt 0.1944 0.7469 1.5052
vt 0.1806 0.6101 1.5052
vt 0.1346 0.4917 1.5052
vt 0.1944 0.4627 1.5052
vt 0.1760 0.3811 1.5052
vt 0.2036 0.3259 1.5052
vt 0.1438 0.3048 1.5052
vt 0.1944 0.7469 0.5052
vt 0.1806 0.6101 0.5052
vt 0.1346 0.4917 0.5052
vt 0.1944 0.4627 0.5052
vt 0.1760 0.3811 0.5052
vt 0.2036 0.3259 0.5052
vt 0.1438 0.3048 0.5052
vt 0.2060 0.7636 0.5052
vt 0.3875 0.8759 1.5052
vt 0.2679 0.8522 1.5052
vt 0.3951 0.6937 1.5052
vt 0.4396 0.8699 1.5052
vt 0.3875 0.8759 0.5052
vt 0.4396 0.8699 0.5052
vt 0.2679 0.8522 0.5052
vt 0.2956 0.5337 0.0000
vt 0.2956 0.5037 0.0000
vt 0.4670 0.5037 0.0000
vt 0.4670 0.5337 0.0000
vt 0.3951 0.6937 0.5052
vt 0.5209 0.7811 1.5052
vt 0.4118 0.7601 1.5052
vt 0.6864 0.6601 1.5052
vt 0.7415 0.6206 1.5052
vt 0.8151 0.6338 1.5052
vt 0.8289 0.6917 1.5052
vt 0.8381 0.7097 1.5052
vt 0.6864 0.6601 0.5052
vt 0.7415 0.6206 0.5052
vt 0.8151 0.6338 0.5052
vt 0.8289 0.6917 0.5052
vt 0.8381 0.7097 0.5052
vt 0.7022 0.5037 0.0000
vt 0.7022 0.5337 0.0000
vt 0.4118 0.7601 0.5052
vt 0.5209 0.7811 0.5052
vt 0.7207 0.4005 0.0000
vt 0.6264 0.4005 0.0000
vt 0.6264 0.3605 0.0000
vt 0.7207 0.3605 0.0000
vt 0.8979 0.8522 1.5052
vt 0.8979 0.8522 0.5052
vt 0.8977 0.8540 0.5052
vt 0.8977 0.8540 1.5052
vt 0.8933 0.9206 1.5052
vt 0.8059 0.9706 1.5052
vt 0.6864 0.9916 1.5052
vt 0.5576 0.9785 1.5052
vt 0.5162 0.9259 1.5052
vt 0.4794 0.8653 1.5052
vt 0.8933 0.9206 0.5052
vt 0.8059 0.9706 0.5052
vt 0.6864 0.9916 0.5052
vt 0.5576 0.9785 0.5052
vt 0.5162 0.9259 0.5052
vt 0.4794 0.8653 0.5052
vt 0.4702 0.4005 0.0000
vt 0.4702 0.3605 0.0000
vt 0.8657 0.7969 1.5052
vt 0.8519 0.7364 1.5052
vt 0.8519 0.7364 0.5052
vt 0.8657 0.7969 0.5052
# 112 texture coords

o target
g target
usemtl 01___Default
s 1
f 1/1/1 2/2/2 3/3/3 4/4/4 
f 3/3/3 5/5/5 4/4/4 
f 4/4/4 6/6/6 7/7/7 8/8/8 
f 7/7/7 9/9/9 8/8/8 
f 1/1/1 4/4/4 8/8/8 10/10/10 
f 10/10/10 8/8/8 11/11/11 12/12/12 
f 10/10/10 12/12/12 13/13/13 
s off
f 3/3/3 2/2/2 14/14/14 15/15/15 
f 3/3/3 15/15/15 16/16/16 5/5/5 
f 5/5/5 16/16/16 17/17/17 4/4/4 
f 4/4/4 17/17/17 18/18/18 6/6/6 
f 6/6/6 18/18/18 19/19/19 7/7/7 
f 7/7/7 19/19/19 20/20/20 9/9/9 
f 9/9/9 20/20/20 21/21/21 8/8/8 
f 8/8/8 21/21/21 22/22/22 11/11/11 
f 11/11/11 22/22/22 23/23/23 12/12/12 
f 12/12/12 23/23/23 24/24/24 13/13/13 
s 1
f 24/24/24 23/23/23 22/22/22 25/25/25 
f 21/21/21 20/20/20 19/19/19 22/22/22 
f 19/19/19 18/18/18 17/17/17 15/15/15 
f 17/17/17 16/16/16 15/15/15 
f 15/15/15 14/14/14 25/25/25 19/19/19 
f 22/22/22 19/19/19 25/25/25 
f 24/24/24 25/25/25 26/26/25 
s 32
f 14/27/26 2/28/26 1/29/27 25/30/27 
s 1
f 27/10/28 28/1/29 1/1/1 10/10/10 
f 29/13/30 27/10/28 10/10/10 13/13/13 
f 30/31/31 31/32/32 32/33/33 33/34/34 
f 32/33/33 34/35/35 35/36/36 33/34/34 
f 36/13/37 30/31/31 33/34/34 10/10/38 
s off
f 37/37/39 30/31/31 36/13/37 24/24/40 
f 30/31/31 37/37/39 38/38/41 31/32/32 
f 31/32/32 38/38/41 39/39/42 32/33/33 
f 32/33/33 39/39/42 40/40/43 34/35/35 
s 1
f 26/26/25 41/41/25 42/42/25 39/39/42 
f 42/42/25 40/40/43 39/39/42 
f 39/39/42 38/38/41 37/37/39 26/26/25 
f 26/26/25 37/37/39 24/24/40 
s off
f 42/42/44 35/36/44 34/35/35 40/40/43 
s 1
f 43/36/45 44/34/46 33/34/34 35/36/36 
f 44/34/46 45/10/47 10/10/38 33/34/34 
f 45/10/47 46/13/48 36/13/37 10/10/38 
f 47/43/49 48/44/50 49/45/51 50/1/52 
f 49/45/51 51/46/53 52/47/54 50/1/52 
f 52/47/54 53/48/55 54/49/56 50/1/52 
f 54/49/56 55/50/57 56/2/58 50/1/52 
f 57/34/59 47/43/49 50/1/52 
s off
f 49/45/51 48/44/50 58/51/60 59/52/61 
f 51/46/53 49/45/51 59/52/61 60/53/62 
f 52/47/54 51/46/53 60/53/62 61/54/63 
f 53/48/55 52/47/54 61/54/63 62/55/64 
f 54/49/56 53/48/55 62/55/64 63/56/65 
f 55/50/57 54/49/56 63/56/65 64/57/66 
f 55/50/57 64/57/66 14/14/67 56/2/58 
s 1
f 61/54/63 60/53/62 59/52/61 65/58/25 
f 59/52/61 58/51/60 65/58/25 
f 65/58/25 66/41/25 67/25/25 63/56/65 
f 67/25/25 14/14/67 64/57/66 63/56/65 
f 61/54/63 65/58/25 63/56/65 62/55/64 
s off
f 48/44/50 47/43/68 65/58/68 58/51/60 
s 1
f 68/2/69 69/1/70 50/1/52 56/2/58 
f 70/34/71 71/43/45 47/43/49 57/34/59 
f 69/1/70 70/34/71 57/34/59 50/1/52 
f 72/59/72 73/60/73 47/43/74 74/61/75 
f 75/62/76 72/59/72 74/61/75 
s off
f 76/63/77 72/59/72 75/62/76 77/64/78 
f 73/60/73 72/59/72 76/63/77 78/65/79 
f 78/65/79 65/58/80 47/43/74 73/60/73 
s 8
f 47/66/74 65/67/80 79/68/81 74/69/75 
s 1
f 78/65/79 76/63/77 77/64/78 65/58/80 
f 79/70/81 65/58/80 77/64/78 
f 80/61/82 81/62/82 75/62/76 74/61/75 
f 82/71/83 83/72/84 84/61/85 85/73/86 
f 84/61/85 35/36/87 85/73/86 
f 85/73/86 86/74/88 87/75/89 82/71/83 
f 82/71/83 87/75/89 88/76/90 89/77/91 
s off
f 42/42/92 90/78/93 85/73/86 35/36/87 
f 90/78/93 91/79/94 86/74/88 85/73/86 
f 91/79/94 92/80/95 87/75/89 86/74/88 
f 92/80/95 93/81/96 88/76/90 87/75/89 
f 88/76/90 93/81/96 94/82/97 89/77/91 
s 8
f 84/69/98 95/68/98 42/83/92 35/84/87 
s 1
f 93/81/96 92/80/95 91/79/94 94/82/97 
f 94/82/97 91/79/94 90/78/93 95/70/25 
f 90/78/93 42/42/92 95/70/25 
f 94/82/97 95/70/25 96/85/25 97/86/25 
s 64
f 84/87/99 83/88/99 96/89/99 95/90/99 
s 1
f 98/71/100 99/72/101 83/72/84 82/71/83 
f 100/77/102 98/71/100 82/71/83 89/77/91 
s off
f 101/91/103 102/92/103 103/93/104 104/94/105 
s 1
f 105/95/106 106/96/107 107/97/108 83/72/109 
f 107/97/108 108/98/110 109/99/111 110/100/112 
f 110/100/112 75/62/85 83/72/109 107/97/108 
f 104/94/105 105/95/106 83/72/109 
s off
f 111/101/113 105/95/106 104/94/105 103/93/104 
f 105/95/106 111/101/113 112/102/114 106/96/107 
f 106/96/107 112/102/114 113/103/115 107/97/108 
f 107/97/108 113/103/115 114/104/116 108/98/110 
f 108/98/110 114/104/116 115/105/117 109/99/111 
f 109/99/111 115/105/117 116/106/118 110/100/112 
s 1
f 96/85/25 117/64/25 116/106/118 114/104/116 
f 116/106/118 115/105/117 114/104/116 
f 114/104/116 113/103/115 112/102/114 96/85/25 
f 96/85/25 112/102/114 111/101/113 103/93/104 
s off
f 116/106/118 117/64/119 75/62/119 110/100/112 
s 64
f 75/107/99 117/108/99 96/89/99 83/88/99 
s 1
f 118/72/120 119/94/120 104/94/105 83/72/109 
f 120/109/121 101/91/122 104/94/123 82/71/124 
f 121/110/125 120/109/121 82/71/124 89/77/126 
s off
f 122/111/127 121/110/125 89/77/126 94/82/128 
f 122/111/127 123/112/129 120/109/121 121/110/125 
f 123/112/129 102/92/130 101/91/122 120/109/121 
s 1
f 97/86/25 103/93/25 102/92/130 123/112/129 
f 97/86/25 123/112/129 122/111/127 94/82/128 
f 124/94/101 125/71/131 82/71/124 104/94/123 
f 125/71/131 126/77/132 89/77/126 82/71/124 
# 100 polygons - 16 triangles

